<svg width="24" height="24" viewBox="0 0 24 24" fill="none" xmlns="http://www.w3.org/2000/svg">
<path fill-rule="evenodd" clip-rule="evenodd" d="M7.19999 2.4C6.88173 2.4 6.57651 2.52643 6.35147 2.75147C6.12642 2.97652 5.99999 3.28174 5.99999 3.6V4.8H4.79999C4.16347 4.8 3.55302 5.05286 3.10294 5.50295C2.65285 5.95303 2.39999 6.56348 2.39999 7.2V19.2C2.39999 19.8365 2.65285 20.447 3.10294 20.8971C3.55302 21.3471 4.16347 21.6 4.79999 21.6H19.2C19.8365 21.6 20.447 21.3471 20.8971 20.8971C21.3471 20.447 21.6 19.8365 21.6 19.2V7.2C21.6 6.56348 21.3471 5.95303 20.8971 5.50295C20.447 5.05286 19.8365 4.8 19.2 4.8H18V3.6C18 3.28174 17.8736 2.97652 17.6485 2.75147C17.4235 2.52643 17.1183 2.4 16.8 2.4C16.4817 2.4 16.1765 2.52643 15.9515 2.75147C15.7264 2.97652 15.6 3.28174 15.6 3.6V4.8H8.39999V3.6C8.39999 3.28174 8.27357 2.97652 8.04852 2.75147C7.82348 2.52643 7.51825 2.4 7.19999 2.4ZM7.19999 8.4C6.88173 8.4 6.57651 8.52643 6.35147 8.75147C6.12642 8.97652 5.99999 9.28174 5.99999 9.6C5.99999 9.91826 6.12642 10.2235 6.35147 10.4485C6.57651 10.6736 6.88173 10.8 7.19999 10.8H16.8C17.1183 10.8 17.4235 10.6736 17.6485 10.4485C17.8736 10.2235 18 9.91826 18 9.6C18 9.28174 17.8736 8.97652 17.6485 8.75147C17.4235 8.52643 17.1183 8.4 16.8 8.4H7.19999Z" fill="black"/>
</svg>
