<svg width="24" height="24" viewBox="0 0 24 24" fill="none" xmlns="http://www.w3.org/2000/svg">
<path fill-rule="evenodd" clip-rule="evenodd" d="M12 10.8C12.9548 10.8 13.8705 10.4207 14.5456 9.74559C15.2207 9.07045 15.6 8.15478 15.6 7.2C15.6 6.24522 15.2207 5.32955 14.5456 4.65442C13.8705 3.97929 12.9548 3.6 12 3.6C11.0452 3.6 10.1296 3.97929 9.45442 4.65442C8.77929 5.32955 8.40001 6.24522 8.40001 7.2C8.40001 8.15478 8.77929 9.07045 9.45442 9.74559C10.1296 10.4207 11.0452 10.8 12 10.8ZM3.60001 21.6C3.60001 20.4969 3.81728 19.4046 4.23942 18.3855C4.66156 17.3663 5.2803 16.4403 6.06031 15.6603C6.84032 14.8803 7.76633 14.2616 8.78547 13.8394C9.8046 13.4173 10.8969 13.2 12 13.2C13.1031 13.2 14.1954 13.4173 15.2145 13.8394C16.2337 14.2616 17.1597 14.8803 17.9397 15.6603C18.7197 16.4403 19.3385 17.3663 19.7606 18.3855C20.1827 19.4046 20.4 20.4969 20.4 21.6H3.60001Z" fill="black"/>
</svg>
